HIERARCHY
ROOT newVegas:Hips
{
	OFFSET 0.000000 96.479958 0.000000
	CHANNELS 6 Xposition Yposition Zposition Xrotation Yrotation Zrotation
	JOINT newVegas:Pelvis
	{
		OFFSET 0.000000 0.000000 0.000000
		CHANNELS 3 Xrotation Yrotation Zrotation
		JOINT newVegas:LeftUpLeg
		{
			OFFSET 18.735201 -5.666702 -4.541200
			CHANNELS 3 Xrotation Yrotation Zrotation
			JOINT newVegas:LeftLeg
			{
				OFFSET -0.021200 -31.938179 0.493100
				CHANNELS 3 Xrotation Yrotation Zrotation
				JOINT newVegas:LeftFoot
				{
					OFFSET 0.021200 -31.938179 -4.336299
					CHANNELS 3 Xrotation Yrotation Zrotation
					JOINT newVegas:LeftToeBase
					{
						OFFSET 0.943001 -26.722000 15.023500
						CHANNELS 3 Xrotation Yrotation Zrotation
						End Site
						{
							OFFSET 0.000000 30.670183 0.000000
						}
					}
				}
				JOINT newVegas:Left_PantLeg
				{
					OFFSET 0.663870 -9.044666 -1.108900
					CHANNELS 3 Xrotation Yrotation Zrotation
					End Site
					{
						OFFSET 1.415995 20.635357 0.000000
					}
				}
			}
		}
		JOINT newVegas:RightUpLeg
		{
			OFFSET -18.735201 -5.666702 -4.541200
			CHANNELS 3 Xrotation Yrotation Zrotation
			JOINT newVegas:RightLeg
			{
				OFFSET 0.018946 -31.938133 0.493100
				CHANNELS 3 Xrotation Yrotation Zrotation
				JOINT newVegas:RightFoot
				{
					OFFSET -0.018946 -31.938126 -4.336299
					CHANNELS 3 Xrotation Yrotation Zrotation
					JOINT newVegas:RightToeBase
					{
						OFFSET -0.943001 -26.722004 15.023500
						CHANNELS 3 Xrotation Yrotation Zrotation
						End Site
						{
							OFFSET 0.000000 30.670187 0.000000
						}
					}
				}
				JOINT newVegas:Right_PantLeg
				{
					OFFSET -0.661674 -9.044716 -1.108900
					CHANNELS 3 Xrotation Yrotation Zrotation
					End Site
					{
						OFFSET -1.415958 20.635269 0.000000
					}
				}
			}
		}
	}
	JOINT newVegas:Spine
	{
		OFFSET 0.000000 10.199997 -0.299500
		CHANNELS 3 Xrotation Yrotation Zrotation
		JOINT newVegas:Spine1
		{
			OFFSET 0.000000 11.900002 -1.516600
			CHANNELS 3 Xrotation Yrotation Zrotation
			JOINT newVegas:Spine2
			{
				OFFSET 0.000000 13.600006 -2.842500
				CHANNELS 3 Xrotation Yrotation Zrotation
				JOINT newVegas:Neck
				{
					OFFSET 0.000000 9.624100 -2.890100
					CHANNELS 3 Xrotation Yrotation Zrotation
					JOINT newVegas:Head
					{
						OFFSET 0.000000 14.068802 -1.351900
						CHANNELS 3 Xrotation Yrotation Zrotation
						JOINT newVegas:Hair_Back
						{
							OFFSET 0.000000 3.231903 -17.524799
							CHANNELS 3 Xrotation Yrotation Zrotation
							End Site
							{
								OFFSET 0.000000 19.849884 0.000000
							}
						}
						JOINT newVegas:Hair_Front
						{
							OFFSET 0.000000 31.260406 4.573800
							CHANNELS 3 Xrotation Yrotation Zrotation
							JOINT newVegas:Hair_Front1
							{
								OFFSET 0.000000 2.284103 11.993300
								CHANNELS 3 Xrotation Yrotation Zrotation
								JOINT newVegas:Hair_Front2
								{
									OFFSET 0.000000 2.284103 11.993300
									CHANNELS 3 Xrotation Yrotation Zrotation
									End Site
									{
										OFFSET 0.000000 12.208862 0.000000
									}
								}
							}
						}
						JOINT newVegas:Jowel
						{
							OFFSET 0.000000 -7.458206 6.864100
							CHANNELS 3 Xrotation Yrotation Zrotation
							End Site
							{
								OFFSET 0.000000 19.849884 0.000000
							}
						}
					}
				}
				JOINT newVegas:LeftShoulder
				{
					OFFSET 15.263000 10.923401 -0.547700
					CHANNELS 3 Xrotation Yrotation Zrotation
					JOINT newVegas:LeftArm
					{
						OFFSET 25.438599 -2.830597 -13.032500
						CHANNELS 3 Xrotation Yrotation Zrotation
						JOINT newVegas:LeftForeArm
						{
							OFFSET 29.960503 0.000000 0.000000
							CHANNELS 3 Xrotation Yrotation Zrotation
							JOINT newVegas:LeftHand
							{
								OFFSET 27.849251 0.000000 0.000000
								CHANNELS 3 Xrotation Yrotation Zrotation
								JOINT newVegas:LeftHandThumb1
								{
									OFFSET 4.487587 -3.305161 6.305391
									CHANNELS 3 Xrotation Yrotation Zrotation
									JOINT newVegas:LeftHandThumb2
									{
										OFFSET 5.480453 -3.164139 3.164143
										CHANNELS 3 Xrotation Yrotation Zrotation
										JOINT newVegas:LeftHandThumb3
										{
											OFFSET 5.159721 -2.978973 2.978967
											CHANNELS 3 Xrotation Yrotation Zrotation
											End Site
											{
												OFFSET 2.494507 5.926697 1.738678
											}
										}
									}
								}
								JOINT newVegas:LeftHandIndex1
								{
									OFFSET 18.578728 -0.527832 5.208049
									CHANNELS 3 Xrotation Yrotation Zrotation
									JOINT newVegas:LeftHandIndex2
									{
										OFFSET 3.192009 0.000000 0.000000
										CHANNELS 3 Xrotation Yrotation Zrotation
										JOINT newVegas:LeftHandIndex3
										{
											OFFSET 3.835129 0.000000 0.000000
											CHANNELS 3 Xrotation Yrotation Zrotation
											End Site
											{
												OFFSET -0.034599 3.816971 0.371180
											}
										}
									}
								}
								JOINT newVegas:LeftHandMiddle1
								{
									OFFSET 18.476105 0.000000 0.000000
									CHANNELS 3 Xrotation Yrotation Zrotation
									JOINT newVegas:LeftHandMiddle2
									{
										OFFSET 3.324875 0.000000 0.000000
										CHANNELS 3 Xrotation Yrotation Zrotation
										JOINT newVegas:LeftHandMiddle3
										{
											OFFSET 4.596550 0.000000 0.000000
											CHANNELS 3 Xrotation Yrotation Zrotation
											End Site
											{
												OFFSET 0.057701 4.578827 0.399218
											}
										}
									}
								}
								JOINT newVegas:LeftHandRing1
								{
									OFFSET 17.732719 0.121887 -4.201567
									CHANNELS 3 Xrotation Yrotation Zrotation
									JOINT newVegas:LeftHandRing2
									{
										OFFSET 2.733170 0.000000 0.000000
										CHANNELS 3 Xrotation Yrotation Zrotation
										JOINT newVegas:LeftHandRing3
										{
											OFFSET 3.178268 0.000000 0.000000
											CHANNELS 3 Xrotation Yrotation Zrotation
											End Site
											{
												OFFSET 0.119102 3.170624 0.185394
											}
										}
									}
								}
								JOINT newVegas:LeftHandPinky1
								{
									OFFSET 15.989624 -0.606689 -7.535461
									CHANNELS 3 Xrotation Yrotation Zrotation
									JOINT newVegas:LeftHandPinky2
									{
										OFFSET 2.538986 0.000000 0.000000
										CHANNELS 3 Xrotation Yrotation Zrotation
										JOINT newVegas:LeftHandPinky3
										{
											OFFSET 2.593102 0.000000 0.000000
											CHANNELS 3 Xrotation Yrotation Zrotation
											End Site
											{
												OFFSET -0.150902 2.584198 0.152708
											}
										}
									}
								}
							}
							JOINT newVegas:Left_Sleeve
							{
								OFFSET 0.267448 -0.649796 0.577675
								CHANNELS 3 Xrotation Yrotation Zrotation
								End Site
								{
									OFFSET 0.000000 15.991241 0.000000
								}
							}
							JOINT newVegas:Left_CapeC
							{
								OFFSET 15.715958 -8.608795 -6.935905
								CHANNELS 3 Xrotation Yrotation Zrotation
								JOINT newVegas:Left_CapeC1
								{
									OFFSET 0.000000 -8.688499 0.000000
									CHANNELS 3 Xrotation Yrotation Zrotation
									End Site
									{
										OFFSET 0.000000 8.688499 0.000000
									}
								}
							}
						}
						JOINT newVegas:Left_CapeB
						{
							OFFSET 26.118385 -8.608795 -7.079235
							CHANNELS 3 Xrotation Yrotation Zrotation
							JOINT newVegas:Left_CapeB1
							{
								OFFSET 0.000000 -8.688499 0.000000
								CHANNELS 3 Xrotation Yrotation Zrotation
								End Site
								{
									OFFSET 0.000000 8.688499 0.000000
								}
							}
						}
						JOINT newVegas:Left_CapeA
						{
							OFFSET 5.115639 -8.608795 -10.395809
							CHANNELS 3 Xrotation Yrotation Zrotation
							JOINT newVegas:Left_CapeA1
							{
								OFFSET 0.000000 -8.688499 0.000000
								CHANNELS 3 Xrotation Yrotation Zrotation
								End Site
								{
									OFFSET 0.000000 8.688499 0.000000
								}
							}
						}
					}
				}
				JOINT newVegas:RightShoulder
				{
					OFFSET -15.263000 10.923401 -0.547700
					CHANNELS 3 Xrotation Yrotation Zrotation
					JOINT newVegas:RightArm
					{
						OFFSET -25.438599 -2.830597 -13.032500
						CHANNELS 3 Xrotation Yrotation Zrotation
						JOINT newVegas:RightForeArm
						{
							OFFSET -29.960503 0.000000 0.000000
							CHANNELS 3 Xrotation Yrotation Zrotation
							JOINT newVegas:RightHand
							{
								OFFSET -27.849251 0.000000 0.000000
								CHANNELS 3 Xrotation Yrotation Zrotation
								JOINT newVegas:RightHandThumb1
								{
									OFFSET -4.487587 -3.305161 6.305391
									CHANNELS 3 Xrotation Yrotation Zrotation
									JOINT newVegas:RightHandThumb2
									{
										OFFSET -5.480453 -3.164139 3.164143
										CHANNELS 3 Xrotation Yrotation Zrotation
										JOINT newVegas:RightHandThumb3
										{
											OFFSET -5.159721 -2.978973 2.978967
											CHANNELS 3 Xrotation Yrotation Zrotation
											End Site
											{
												OFFSET -2.494507 5.926697 1.738678
											}
										}
									}
								}
								JOINT newVegas:RightHandIndex1
								{
									OFFSET -18.578728 -0.527832 5.208049
									CHANNELS 3 Xrotation Yrotation Zrotation
									JOINT newVegas:RightHandIndex2
									{
										OFFSET -3.192009 0.000000 0.000000
										CHANNELS 3 Xrotation Yrotation Zrotation
										JOINT newVegas:RightHandIndex3
										{
											OFFSET -3.835129 0.000000 0.000000
											CHANNELS 3 Xrotation Yrotation Zrotation
											End Site
											{
												OFFSET 0.034599 3.816971 0.371180
											}
										}
									}
								}
								JOINT newVegas:RightHandMiddle1
								{
									OFFSET -18.476105 0.000000 0.000000
									CHANNELS 3 Xrotation Yrotation Zrotation
									JOINT newVegas:RightHandMiddle2
									{
										OFFSET -3.324875 0.000000 0.000000
										CHANNELS 3 Xrotation Yrotation Zrotation
										JOINT newVegas:RightHandMiddle3
										{
											OFFSET -4.596550 0.000000 0.000000
											CHANNELS 3 Xrotation Yrotation Zrotation
											End Site
											{
												OFFSET -0.057701 4.578827 0.399218
											}
										}
									}
								}
								JOINT newVegas:RightHandRing1
								{
									OFFSET -17.732719 0.121887 -4.201567
									CHANNELS 3 Xrotation Yrotation Zrotation
									JOINT newVegas:RightHandRing2
									{
										OFFSET -2.733170 0.000000 0.000000
										CHANNELS 3 Xrotation Yrotation Zrotation
										JOINT newVegas:RightHandRing3
										{
											OFFSET -3.178268 0.000000 0.000000
											CHANNELS 3 Xrotation Yrotation Zrotation
											End Site
											{
												OFFSET -0.119102 3.170624 0.185394
											}
										}
									}
								}
								JOINT newVegas:RightHandPinky1
								{
									OFFSET -15.989624 -0.606689 -7.535461
									CHANNELS 3 Xrotation Yrotation Zrotation
									JOINT newVegas:RightHandPinky2
									{
										OFFSET -2.538986 0.000000 0.000000
										CHANNELS 3 Xrotation Yrotation Zrotation
										JOINT newVegas:RightHandPinky3
										{
											OFFSET -2.593102 0.000000 0.000000
											CHANNELS 3 Xrotation Yrotation Zrotation
											End Site
											{
												OFFSET 0.150902 2.584198 0.152708
											}
										}
									}
								}
							}
							JOINT newVegas:Right_CapeC
							{
								OFFSET -15.715958 -8.608795 -6.935905
								CHANNELS 3 Xrotation Yrotation Zrotation
								JOINT newVegas:Right_CapeC1
								{
									OFFSET 0.000000 -8.688499 0.000000
									CHANNELS 3 Xrotation Yrotation Zrotation
									End Site
									{
										OFFSET 0.000000 8.688499 0.000000
									}
								}
							}
							JOINT newVegas:Right_Sleeve
							{
								OFFSET -0.267448 -0.649994 0.577675
								CHANNELS 3 Xrotation Yrotation Zrotation
								End Site
								{
									OFFSET 0.000000 15.991302 0.000000
								}
							}
						}
						JOINT newVegas:Right_CapeA
						{
							OFFSET -5.115540 -8.608795 -10.395824
							CHANNELS 3 Xrotation Yrotation Zrotation
							JOINT newVegas:Right_CapeA1
							{
								OFFSET 0.000000 -8.688499 0.000000
								CHANNELS 3 Xrotation Yrotation Zrotation
								End Site
								{
									OFFSET 0.000000 8.688499 0.000000
								}
							}
						}
						JOINT newVegas:Right_CapeB
						{
							OFFSET -26.118187 -8.608795 -7.079266
							CHANNELS 3 Xrotation Yrotation Zrotation
							JOINT newVegas:Right_CapeB1
							{
								OFFSET 0.000000 -8.688499 0.000000
								CHANNELS 3 Xrotation Yrotation Zrotation
								End Site
								{
									OFFSET 0.000000 8.688499 0.000000
								}
							}
						}
					}
				}
				JOINT newVegas:Left_Collar
				{
					OFFSET 18.625099 8.655502 8.828100
					CHANNELS 3 Xrotation Yrotation Zrotation
					JOINT newVegas:Left_Collar1
					{
						OFFSET 14.783401 10.540405 -1.259500
						CHANNELS 3 Xrotation Yrotation Zrotation
						End Site
						{
							OFFSET 0.000000 18.199875 0.000000
						}
					}
				}
				JOINT newVegas:Collar_Back
				{
					OFFSET 0.000000 15.630707 -20.132601
					CHANNELS 3 Xrotation Yrotation Zrotation
					End Site
					{
						OFFSET 0.000000 22.523010 0.000000
					}
				}
				JOINT newVegas:Left_Peck
				{
					OFFSET 17.239599 -5.132599 25.482599
					CHANNELS 3 Xrotation Yrotation Zrotation
					End Site
					{
						OFFSET 0.000000 22.523010 0.000000
					}
				}
				JOINT newVegas:Right_Peck
				{
					OFFSET -17.239599 -5.132202 25.482599
					CHANNELS 3 Xrotation Yrotation Zrotation
					End Site
					{
						OFFSET 0.000000 22.523010 0.000000
					}
				}
				JOINT newVegas:Right_Collar
				{
					OFFSET -18.625099 8.655792 8.828100
					CHANNELS 3 Xrotation Yrotation Zrotation
					JOINT newVegas:Right_Collar1
					{
						OFFSET -14.783401 10.539993 -1.259500
						CHANNELS 3 Xrotation Yrotation Zrotation
						End Site
						{
							OFFSET 0.000000 18.199631 0.000000
						}
					}
				}
			}
		}
		JOINT newVegas:Belly
		{
			OFFSET 0.000000 -6.540398 9.014299
			CHANNELS 3 Xrotation Yrotation Zrotation
			End Site
			{
				OFFSET 0.000000 11.566666 0.000000
			}
		}
	}
	JOINT newVegas:ElvisFacialAnim_Joint
	{
		OFFSET 1.000000 -95.330101 -8.825800
		CHANNELS 3 Xrotation Yrotation Zrotation
		End Site
		{
			OFFSET 0.000000 35.315800 0.000000
		}
	}
}
MOTION
Frames: 4
Frame Time: 0.033333
-2.529503 83.444214 1.048891 9.511085 -61.528175 10.139692 -0.000000 -0.000001 -0.000000 -41.485616 6.898396 29.341622 42.476380 -8.855469 1.133462 -6.285691 -1.073339 -21.274702 -0.000000 0.000000 0.000000 0.000000 -0.000002 0.000000 -31.349243 -15.813432 -39.178115 41.611524 6.255672 -4.187890 -15.613013 -2.030436 28.893148 -0.000000 -0.000000 -0.000000 -0.000000 -0.000000 -0.000002 15.063788 -0.418059 -4.284001 5.872407 0.563923 -2.798210 5.868714 0.648185 -2.860163 -0.718911 0.306356 0.742058 -0.718886 0.306349 0.742049 -0.000000 0.000001 -0.000000 -0.718815 0.306358 0.742053 -0.718957 0.306347 0.742057 -0.000003 -0.000002 0.000001 -0.000000 0.000001 -0.000001 1.828099 -3.192691 -12.271568 -39.387416 26.350496 -34.911102 0.429375 -46.808482 0.416191 -10.315068 -0.130721 0.363031 40.109934 -15.297155 -0.360500 5.639792 28.097908 11.338858 0.000002 -0.000002 -0.000007 6.882246 2.840070 -61.140432 8.247996 7.640066 -89.897871 -0.000000 0.000000 0.000001 -2.345513 4.688865 -62.655217 8.754133 9.897070 -87.051307 0.000002 0.000000 0.000000 -9.042459 10.045654 -60.766185 8.524108 9.508801 -66.893049 -0.000003 -0.000001 0.000001 -17.946916 14.755003 -51.485857 8.868419 8.667036 -84.811996 -0.000003 -0.000003 0.000000 0.000001 -0.000003 0.000003 0.000001 -0.000003 0.000003 0.000000 -0.000002 0.000003 -0.000001 -0.000001 0.000004 -0.000000 -0.000002 0.000001 -0.000001 -0.000001 0.000004 -0.000002 -0.000001 0.000003 0.632604 7.257349 8.700390 7.936020 -9.680155 53.429903 -22.867439 36.194689 17.955440 -27.369934 10.432883 -17.813545 -2.346173 -6.100555 10.731431 2.364041 -23.806283 -8.771062 0.000001 -0.000001 0.000001 -0.054748 0.532105 0.738736 0.019776 -0.087316 5.078497 -0.000000 -0.000001 0.000001 0.348262 -5.918525 2.583836 1.432609 -4.204233 24.052108 0.000001 0.000001 0.000000 1.205838 -11.756061 4.154782 1.794844 -3.771883 26.865405 -0.000000 -0.000001 0.000001 2.126197 -19.166882 11.319978 3.354772 -2.122220 18.828525 -0.000000 -0.000004 -0.000001 -0.000004 0.000001 -0.000001 -0.000004 -0.000001 -0.000003 -0.000004 0.000000 -0.000001 -0.000001 -0.000001 -0.000002 -0.000001 0.000000 -0.000003 -0.000001 -0.000001 -0.000002 -0.000001 -0.000000 -0.000003 -0.000000 0.000001 0.000000 -0.000000 0.000001 0.000000 -0.000000 0.000001 0.000000 -0.000000 0.000001 0.000000 -0.000000 0.000001 0.000000 -0.000000 0.000001 0.000000 -0.000000 0.000001 0.000000 -0.000002 0.000000 -0.000000 -0.000000 -0.000001 -0.000000 
-2.459918 83.471817 1.252796 -5.064735 -55.996322 -1.315762 -0.000000 -0.000001 0.000000 -38.337855 8.618424 28.055268 42.389780 -12.578243 0.879205 -4.361783 -4.747464 -18.868568 -0.000000 -0.000002 -0.000000 0.000000 0.000000 0.000002 -22.197459 -18.979298 -41.834209 44.060437 4.174122 -4.478187 -19.335697 -3.278963 29.366631 0.000000 0.000000 0.000000 0.000001 -0.000001 -0.000002 18.622938 -0.397555 -4.168810 11.125474 0.869095 -3.344917 11.128698 0.840559 -3.388205 -0.099891 -0.782276 0.988207 -0.099854 -0.782294 0.988216 0.000002 -0.000002 -0.000000 -0.099931 -0.782278 0.988203 -0.099852 -0.782267 0.988203 -0.000000 -0.000002 0.000002 0.000002 -0.000002 0.000000 1.954173 -7.900306 -5.306842 -38.210349 1.178095 -38.681711 20.999133 -32.252901 11.299590 -16.157501 -3.228117 -14.037737 40.109924 -15.297237 -0.360512 5.639791 28.097911 11.338857 -0.000002 0.000000 0.000006 6.882281 2.840067 -61.140418 8.247997 7.640068 -89.897871 0.000000 0.000002 0.000000 -2.345513 4.688860 -62.655217 8.754131 9.897070 -87.051307 0.000001 -0.000000 0.000001 -9.042446 10.045639 -60.766212 8.524103 9.508802 -66.893042 0.000000 -0.000001 0.000000 -17.946918 14.755051 -51.485816 8.868419 8.667037 -84.811996 0.000000 -0.000002 0.000004 0.000000 -0.000001 0.000001 0.000000 -0.000001 0.000001 0.000000 -0.000000 0.000001 0.000003 0.000001 0.000001 0.000003 -0.000000 -0.000003 0.000003 0.000001 0.000001 0.000002 0.000001 0.000001 0.386999 11.390829 6.096247 24.250426 5.476975 46.184520 -22.989391 39.913143 20.530222 -27.263994 17.688708 -12.797025 -2.007114 -5.105553 9.747318 3.033886 -25.848711 -9.180265 -0.000000 0.000002 0.000001 -0.032491 0.292864 1.534418 0.016224 -0.087168 6.817034 -0.000001 -0.000000 0.000003 0.349835 -5.828590 3.335057 1.710658 -4.088897 28.863177 -0.000003 0.000000 0.000001 1.201539 -11.545611 4.783094 2.014846 -3.661623 31.180633 0.000001 0.000001 -0.000000 1.873725 -18.523632 11.482370 3.006888 -2.304087 19.236920 -0.000001 0.000001 0.000001 0.000004 -0.000000 -0.000001 0.000003 0.000001 -0.000000 0.000004 -0.000001 -0.000001 -0.000001 -0.000003 -0.000001 -0.000001 -0.000003 -0.000001 -0.000001 -0.000003 -0.000001 -0.000001 -0.000003 -0.000001 0.000001 -0.000002 0.000001 0.000001 -0.000002 0.000001 0.000001 -0.000002 0.000001 0.000001 -0.000002 0.000001 0.000001 -0.000002 0.000001 0.000001 -0.000002 0.000001 0.000001 -0.000002 0.000001 -0.000000 0.000001 -0.000000 -0.000000 -0.000001 0.000000 
-4.087841 83.929543 2.455666 -16.445950 -52.519251 -6.340395 0.000000 0.000002 -0.000000 -28.988590 13.519341 24.373952 38.913845 -14.787932 0.611707 -4.022708 -6.722814 -17.664285 -0.000000 0.000003 -0.000000 0.000000 -0.000003 0.000002 -12.870754 -20.457882 -45.694433 44.701744 2.490942 -6.338140 -22.759075 -4.955841 31.075390 0.000000 0.000000 -0.000000 0.000002 -0.000000 -0.000002 16.505992 -0.274460 -5.586436 11.247881 1.940353 -5.254604 11.275364 1.863164 -5.323861 6.009290 -2.866650 1.825145 6.009269 -2.866660 1.825162 -0.000001 -0.000001 0.000002 6.009387 -2.866610 1.825148 6.009189 -2.866648 1.825142 -0.000000 0.000001 0.000000 -0.000001 -0.000001 0.000003 2.539066 -11.037917 2.910460 -36.706253 -15.260589 -41.175649 59.422735 -14.478676 25.180975 -21.876683 -11.562283 -31.602749 40.109934 -15.297177 -0.360485 5.639791 28.097908 11.338858 0.000001 -0.000004 -0.000003 6.882234 2.840114 -61.140418 8.247996 7.640069 -89.897864 -0.000002 -0.000001 -0.000003 -2.345542 4.688869 -62.655231 8.754136 9.897068 -87.051307 -0.000001 0.000001 0.000002 -9.042463 10.045687 -60.766199 8.524103 9.508802 -66.893042 0.000002 -0.000002 0.000000 -17.946993 14.755043 -51.485826 8.868418 8.667039 -84.811996 -0.000000 -0.000003 -0.000000 0.000001 0.000001 0.000002 0.000001 0.000001 0.000002 -0.000000 0.000001 0.000002 0.000001 -0.000001 -0.000001 0.000000 -0.000002 -0.000000 0.000001 -0.000001 -0.000001 0.000001 -0.000002 -0.000001 0.277349 13.133874 2.496437 44.586423 16.779420 36.710798 -21.188232 51.178727 15.395030 -30.333912 20.280500 7.688995 -1.650249 -4.128570 8.749746 3.681047 -27.845727 -9.560976 0.000002 -0.000001 0.000001 0.007945 0.055654 2.330149 0.018757 -0.086624 8.553856 0.000001 -0.000001 -0.000001 0.350915 -5.738944 4.086305 1.991050 -3.950865 33.834367 0.000002 0.000000 -0.000001 1.197236 -11.335540 5.411661 2.215921 -3.547308 35.289193 -0.000001 0.000001 -0.000001 1.617091 -17.882429 11.648500 2.661156 -2.485523 19.644591 0.000003 0.000002 0.000000 -0.000001 -0.000001 -0.000000 -0.000000 0.000000 -0.000001 -0.000000 -0.000001 -0.000001 -0.000001 -0.000001 0.000000 -0.000001 0.000000 0.000000 -0.000001 -0.000001 0.000000 -0.000001 -0.000000 -0.000000 -0.000001 -0.000000 0.000001 -0.000001 -0.000000 0.000001 -0.000001 -0.000000 0.000001 -0.000001 -0.000000 0.000001 -0.000001 -0.000000 0.000001 -0.000001 -0.000000 0.000001 -0.000001 -0.000000 0.000001 0.000001 -0.000002 -0.000000 0.000000 0.000002 -0.000000 
-6.309971 84.498795 4.495813 -23.685716 -53.458962 -9.852710 0.000002 0.000005 0.000001 -19.493990 16.888799 22.077914 37.083102 -14.692495 0.545192 -7.071128 -6.221134 -17.732233 0.000000 -0.000002 -0.000000 0.000000 0.000003 -0.000000 -7.007685 -20.091244 -45.375737 43.778586 0.592171 -10.703267 -24.457871 -5.909844 31.470571 -0.000000 0.000000 -0.000000 0.000002 0.000000 -0.000001 11.710188 0.189910 -4.238774 8.859504 2.237296 -5.412705 8.908481 2.198920 -5.465910 9.278141 -4.001323 1.326870 9.278113 -4.001331 1.326874 -0.000001 -0.000001 0.000000 9.278138 -4.001331 1.326862 9.278178 -4.001352 1.326888 0.000002 0.000001 -0.000002 -0.000001 -0.000001 -0.000000 2.436596 -9.609584 3.693798 -33.701881 -11.522991 -38.232629 41.954454 -32.872150 23.196260 -9.014765 -12.121611 -18.565357 40.109914 -15.297146 -0.360474 5.639793 28.097906 11.338859 0.000003 -0.000004 0.000004 6.882237 2.840095 -61.140391 8.248001 7.640069 -89.897871 -0.000000 -0.000002 0.000000 -2.345580 4.688880 -62.655204 8.754132 9.897068 -87.051307 0.000000 -0.000001 -0.000000 -9.042464 10.045660 -60.766185 8.524105 9.508801 -66.893042 -0.000002 -0.000001 0.000001 -17.946947 14.755044 -51.485788 8.868418 8.667036 -84.811989 0.000001 -0.000005 -0.000000 -0.000000 0.000001 -0.000001 -0.000000 0.000001 -0.000001 -0.000000 0.000001 -0.000002 -0.000001 0.000000 -0.000001 -0.000001 0.000000 -0.000000 -0.000001 0.000000 -0.000001 -0.000001 0.000000 -0.000001 -0.241914 12.738013 -7.073845 47.537987 19.123287 31.363064 -30.584600 62.731299 15.254152 -28.266087 9.204975 13.955427 -1.249956 -3.351853 7.682020 4.136101 -29.246163 -9.792719 -0.000000 -0.000002 -0.000001 0.060616 -0.166257 3.010680 0.022316 -0.085754 10.894518 -0.000000 0.000001 0.000000 0.343660 -5.634527 5.020412 2.338996 -3.708598 41.243295 0.000002 0.000002 0.000003 1.212394 -11.084390 6.618721 2.193896 -3.424005 36.719975 0.000002 0.000002 -0.000001 1.530108 -17.107880 12.926731 2.314731 -2.668157 20.051067 0.000000 -0.000002 -0.000001 0.000001 -0.000000 -0.000001 0.000001 0.000000 0.000001 0.000001 -0.000000 -0.000001 -0.000000 -0.000001 -0.000000 -0.000000 0.000000 -0.000002 -0.000000 -0.000001 -0.000000 -0.000000 -0.000000 -0.000000 -0.000000 -0.000001 0.000001 -0.000000 -0.000001 0.000001 -0.000000 -0.000001 0.000001 -0.000000 -0.000001 0.000001 -0.000000 -0.000001 0.000001 -0.000000 -0.000001 0.000001 -0.000000 -0.000001 0.000001 0.000000 -0.000000 0.000000 0.000002 0.000005 0.000001 
